<?xml version="1.0" encoding="UTF-8" standalone="no"?>
<!DOCTYPE svg PUBLIC "-//W3C//DTD SVG 1.1//EN"
 "http://www.w3.org/Graphics/SVG/1.1/DTD/svg11.dtd">
<!-- Generated by graphviz version 2.43.0 (0)
 -->
<!-- Title: %3 Pages: 1 -->
<svg width="154pt" height="764pt"
 viewBox="0.00 0.00 154.34 764.00" xmlns="http://www.w3.org/2000/svg" xmlns:xlink="http://www.w3.org/1999/xlink">
<g id="graph0" class="graph" transform="scale(1 1) rotate(0) translate(4 760)">
<title>%3</title>
<polygon fill="white" stroke="transparent" points="-4,4 -4,-760 150.34,-760 150.34,4 -4,4"/>
<!-- 0 -->
<g id="node1" class="node">
<title>0</title>
<ellipse fill="none" stroke="black" cx="113.75" cy="-738" rx="27" ry="18"/>
<text text-anchor="middle" x="113.75" y="-734.3" font-family="Times,serif" font-size="14.00">0</text>
</g>
<!-- 1 -->
<g id="node2" class="node">
<title>1</title>
<ellipse fill="none" stroke="black" cx="113.75" cy="-666" rx="27" ry="18"/>
<text text-anchor="middle" x="113.75" y="-662.3" font-family="Times,serif" font-size="14.00">1</text>
</g>
<!-- 0&#45;&gt;1 -->
<g id="edge1" class="edge">
<title>0&#45;&gt;1</title>
<path fill="none" stroke="black" d="M113.75,-719.7C113.75,-711.98 113.75,-702.71 113.75,-694.11"/>
<polygon fill="black" stroke="black" points="117.25,-694.1 113.75,-684.1 110.25,-694.1 117.25,-694.1"/>
</g>
<!-- 2 -->
<g id="node3" class="node">
<title>2</title>
<ellipse fill="none" stroke="black" cx="113.75" cy="-594" rx="27" ry="18"/>
<text text-anchor="middle" x="113.75" y="-590.3" font-family="Times,serif" font-size="14.00">2</text>
</g>
<!-- 1&#45;&gt;2 -->
<g id="edge2" class="edge">
<title>1&#45;&gt;2</title>
<path fill="none" stroke="black" d="M113.75,-647.7C113.75,-639.98 113.75,-630.71 113.75,-622.11"/>
<polygon fill="black" stroke="black" points="117.25,-622.1 113.75,-612.1 110.25,-622.1 117.25,-622.1"/>
</g>
<!-- 3 -->
<g id="node4" class="node">
<title>3</title>
<ellipse fill="none" stroke="black" cx="113.75" cy="-522" rx="27" ry="18"/>
<text text-anchor="middle" x="113.75" y="-518.3" font-family="Times,serif" font-size="14.00">3</text>
</g>
<!-- 2&#45;&gt;3 -->
<g id="edge3" class="edge">
<title>2&#45;&gt;3</title>
<path fill="none" stroke="black" d="M113.75,-575.7C113.75,-567.98 113.75,-558.71 113.75,-550.11"/>
<polygon fill="black" stroke="black" points="117.25,-550.1 113.75,-540.1 110.25,-550.1 117.25,-550.1"/>
</g>
<!-- 4 -->
<g id="node5" class="node">
<title>4</title>
<ellipse fill="none" stroke="black" cx="113.75" cy="-450" rx="27" ry="18"/>
<text text-anchor="middle" x="113.75" y="-446.3" font-family="Times,serif" font-size="14.00">4</text>
</g>
<!-- 3&#45;&gt;4 -->
<g id="edge4" class="edge">
<title>3&#45;&gt;4</title>
<path fill="none" stroke="black" d="M113.75,-503.7C113.75,-495.98 113.75,-486.71 113.75,-478.11"/>
<polygon fill="black" stroke="black" points="117.25,-478.1 113.75,-468.1 110.25,-478.1 117.25,-478.1"/>
</g>
<!-- 5 -->
<g id="node6" class="node">
<title>5</title>
<ellipse fill="none" stroke="black" cx="113.75" cy="-378" rx="27" ry="18"/>
<text text-anchor="middle" x="113.75" y="-374.3" font-family="Times,serif" font-size="14.00">5</text>
</g>
<!-- 4&#45;&gt;5 -->
<g id="edge5" class="edge">
<title>4&#45;&gt;5</title>
<path fill="none" stroke="black" d="M113.75,-431.7C113.75,-423.98 113.75,-414.71 113.75,-406.11"/>
<polygon fill="black" stroke="black" points="117.25,-406.1 113.75,-396.1 110.25,-406.1 117.25,-406.1"/>
</g>
<!-- 6 -->
<g id="node7" class="node">
<title>6</title>
<ellipse fill="none" stroke="black" cx="86.75" cy="-306" rx="27" ry="18"/>
<text text-anchor="middle" x="86.75" y="-302.3" font-family="Times,serif" font-size="14.00">6</text>
</g>
<!-- 5&#45;&gt;6 -->
<g id="edge6" class="edge">
<title>5&#45;&gt;6</title>
<path fill="none" stroke="black" d="M107.35,-360.41C104.23,-352.34 100.41,-342.43 96.91,-333.35"/>
<polygon fill="black" stroke="black" points="100.15,-332.03 93.29,-323.96 93.62,-334.55 100.15,-332.03"/>
</g>
<!-- 7 -->
<g id="node8" class="node">
<title>7</title>
<ellipse fill="none" stroke="black" cx="117.75" cy="-18" rx="28.7" ry="18"/>
<text text-anchor="middle" x="117.75" y="-14.3" font-family="Times,serif" font-size="14.00">Win</text>
</g>
<!-- 5&#45;&gt;7 -->
<g id="edge7" class="edge">
<title>5&#45;&gt;7</title>
<path fill="none" stroke="black" d="M119.28,-360.16C127.44,-333.79 141.75,-280.98 141.75,-235 141.75,-235 141.75,-235 141.75,-161 141.75,-120.43 132.1,-74.24 125.04,-45.85"/>
<polygon fill="black" stroke="black" points="128.36,-44.71 122.49,-35.89 121.58,-46.45 128.36,-44.71"/>
</g>
<!-- 8 -->
<g id="node9" class="node">
<title>8</title>
<ellipse fill="none" stroke="black" cx="86.75" cy="-234" rx="27" ry="18"/>
<text text-anchor="middle" x="86.75" y="-230.3" font-family="Times,serif" font-size="14.00">7</text>
</g>
<!-- 6&#45;&gt;8 -->
<g id="edge8" class="edge">
<title>6&#45;&gt;8</title>
<path fill="none" stroke="black" d="M86.75,-287.7C86.75,-279.98 86.75,-270.71 86.75,-262.11"/>
<polygon fill="black" stroke="black" points="90.25,-262.1 86.75,-252.1 83.25,-262.1 90.25,-262.1"/>
</g>
<!-- 8&#45;&gt;7 -->
<g id="edge9" class="edge">
<title>8&#45;&gt;7</title>
<path fill="none" stroke="black" d="M89.23,-215.85C94.61,-178.74 107.35,-90.75 113.83,-46.05"/>
<polygon fill="black" stroke="black" points="117.32,-46.33 115.29,-35.94 110.4,-45.33 117.32,-46.33"/>
</g>
<!-- 9 -->
<g id="node10" class="node">
<title>9</title>
<ellipse fill="none" stroke="black" cx="48.75" cy="-162" rx="27" ry="18"/>
<text text-anchor="middle" x="48.75" y="-158.3" font-family="Times,serif" font-size="14.00">8</text>
</g>
<!-- 8&#45;&gt;9 -->
<g id="edge10" class="edge">
<title>8&#45;&gt;9</title>
<path fill="none" stroke="black" d="M77.93,-216.76C73.33,-208.28 67.59,-197.71 62.43,-188.2"/>
<polygon fill="black" stroke="black" points="65.36,-186.27 57.51,-179.15 59.21,-189.61 65.36,-186.27"/>
</g>
<!-- 10 -->
<g id="node11" class="node">
<title>10</title>
<ellipse fill="none" stroke="black" cx="48.75" cy="-90" rx="27" ry="18"/>
<text text-anchor="middle" x="48.75" y="-86.3" font-family="Times,serif" font-size="14.00">9</text>
</g>
<!-- 9&#45;&gt;10 -->
<g id="edge11" class="edge">
<title>9&#45;&gt;10</title>
<path fill="none" stroke="black" d="M48.75,-143.7C48.75,-135.98 48.75,-126.71 48.75,-118.11"/>
<polygon fill="black" stroke="black" points="52.25,-118.1 48.75,-108.1 45.25,-118.1 52.25,-118.1"/>
</g>
<!-- 10&#45;&gt;7 -->
<g id="edge12" class="edge">
<title>10&#45;&gt;7</title>
<path fill="none" stroke="black" d="M63.04,-74.5C72.54,-64.86 85.18,-52.04 95.92,-41.14"/>
<polygon fill="black" stroke="black" points="98.46,-43.55 102.99,-33.97 93.48,-38.63 98.46,-43.55"/>
</g>
<!-- 11 -->
<g id="node12" class="node">
<title>11</title>
<ellipse fill="none" stroke="black" cx="35.75" cy="-18" rx="36" ry="18"/>
<text text-anchor="middle" x="35.75" y="-14.3" font-family="Times,serif" font-size="14.00">Draw</text>
</g>
<!-- 10&#45;&gt;11 -->
<g id="edge13" class="edge">
<title>10&#45;&gt;11</title>
<path fill="none" stroke="black" d="M45.6,-72.05C44.17,-64.35 42.44,-55.03 40.83,-46.36"/>
<polygon fill="black" stroke="black" points="44.22,-45.47 38.96,-36.28 37.34,-46.75 44.22,-45.47"/>
</g>
</g>
</svg>
