<?xml version="1.0" encoding="UTF-8" standalone="no"?>
<!DOCTYPE svg PUBLIC "-//W3C//DTD SVG 1.1//EN"
 "http://www.w3.org/Graphics/SVG/1.1/DTD/svg11.dtd">
<!-- Generated by graphviz version 2.43.0 (0)
 -->
<!-- Title: %3 Pages: 1 -->
<svg width="979pt" height="114pt"
 viewBox="0.00 0.00 979.49 114.00" xmlns="http://www.w3.org/2000/svg" xmlns:xlink="http://www.w3.org/1999/xlink">
<g id="graph0" class="graph" transform="scale(1 1) rotate(0) translate(4 110)">
<title>%3</title>
<polygon fill="white" stroke="transparent" points="-4,4 -4,-110 975.49,-110 975.49,4 -4,4"/>
<!-- 0 -->
<g id="node1" class="node">
<title>0</title>
<ellipse fill="none" stroke="black" cx="27" cy="-23" rx="27" ry="18"/>
<text text-anchor="middle" x="27" y="-19.3" font-family="Times,serif" font-size="14.00">0</text>
</g>
<!-- 1 -->
<g id="node2" class="node">
<title>1</title>
<ellipse fill="none" stroke="black" cx="117" cy="-23" rx="27" ry="18"/>
<text text-anchor="middle" x="117" y="-19.3" font-family="Times,serif" font-size="14.00">1</text>
</g>
<!-- 0&#45;&gt;1 -->
<g id="edge1" class="edge">
<title>0&#45;&gt;1</title>
<path fill="none" stroke="black" d="M54.4,-23C62.39,-23 71.31,-23 79.82,-23"/>
<polygon fill="black" stroke="black" points="79.92,-26.5 89.92,-23 79.92,-19.5 79.92,-26.5"/>
</g>
<!-- 2 -->
<g id="node3" class="node">
<title>2</title>
<ellipse fill="none" stroke="black" cx="207" cy="-23" rx="27" ry="18"/>
<text text-anchor="middle" x="207" y="-19.3" font-family="Times,serif" font-size="14.00">2</text>
</g>
<!-- 1&#45;&gt;2 -->
<g id="edge2" class="edge">
<title>1&#45;&gt;2</title>
<path fill="none" stroke="black" d="M144.4,-23C152.39,-23 161.31,-23 169.82,-23"/>
<polygon fill="black" stroke="black" points="169.92,-26.5 179.92,-23 169.92,-19.5 169.92,-26.5"/>
</g>
<!-- 3 -->
<g id="node4" class="node">
<title>3</title>
<ellipse fill="none" stroke="black" cx="297" cy="-23" rx="27" ry="18"/>
<text text-anchor="middle" x="297" y="-19.3" font-family="Times,serif" font-size="14.00">3</text>
</g>
<!-- 2&#45;&gt;3 -->
<g id="edge3" class="edge">
<title>2&#45;&gt;3</title>
<path fill="none" stroke="black" d="M234.4,-23C242.39,-23 251.31,-23 259.82,-23"/>
<polygon fill="black" stroke="black" points="259.92,-26.5 269.92,-23 259.92,-19.5 259.92,-26.5"/>
</g>
<!-- 4 -->
<g id="node5" class="node">
<title>4</title>
<ellipse fill="none" stroke="black" cx="387" cy="-23" rx="27" ry="18"/>
<text text-anchor="middle" x="387" y="-19.3" font-family="Times,serif" font-size="14.00">4</text>
</g>
<!-- 3&#45;&gt;4 -->
<g id="edge4" class="edge">
<title>3&#45;&gt;4</title>
<path fill="none" stroke="black" d="M324.4,-23C332.39,-23 341.31,-23 349.82,-23"/>
<polygon fill="black" stroke="black" points="349.92,-26.5 359.92,-23 349.92,-19.5 349.92,-26.5"/>
</g>
<!-- 5 -->
<g id="node6" class="node">
<title>5</title>
<ellipse fill="none" stroke="black" cx="477" cy="-23" rx="27" ry="18"/>
<text text-anchor="middle" x="477" y="-19.3" font-family="Times,serif" font-size="14.00">5</text>
</g>
<!-- 4&#45;&gt;5 -->
<g id="edge5" class="edge">
<title>4&#45;&gt;5</title>
<path fill="none" stroke="black" d="M414.4,-23C422.39,-23 431.31,-23 439.82,-23"/>
<polygon fill="black" stroke="black" points="439.92,-26.5 449.92,-23 439.92,-19.5 439.92,-26.5"/>
</g>
<!-- 6 -->
<g id="node7" class="node">
<title>6</title>
<ellipse fill="none" stroke="black" cx="567" cy="-46" rx="27" ry="18"/>
<text text-anchor="middle" x="567" y="-42.3" font-family="Times,serif" font-size="14.00">6</text>
</g>
<!-- 5&#45;&gt;6 -->
<g id="edge6" class="edge">
<title>5&#45;&gt;6</title>
<path fill="none" stroke="black" d="M502.51,-29.41C511.57,-31.77 522.01,-34.5 531.78,-37.05"/>
<polygon fill="black" stroke="black" points="531.06,-40.49 541.62,-39.63 532.83,-33.71 531.06,-40.49"/>
</g>
<!-- 7 -->
<g id="node8" class="node">
<title>7</title>
<ellipse fill="none" stroke="black" cx="935.75" cy="-34" rx="28.7" ry="18"/>
<text text-anchor="middle" x="935.75" y="-30.3" font-family="Times,serif" font-size="14.00">Win</text>
</g>
<!-- 5&#45;&gt;7 -->
<g id="edge7" class="edge">
<title>5&#45;&gt;7</title>
<path fill="none" stroke="black" d="M502.93,-17.72C537.23,-10.93 601,0 656,0 656,0 656,0 748,0 801.62,0 862.51,-13.73 899.78,-23.74"/>
<polygon fill="black" stroke="black" points="899.07,-27.18 909.64,-26.45 900.92,-20.43 899.07,-27.18"/>
</g>
<!-- 8 -->
<g id="node9" class="node">
<title>8</title>
<ellipse fill="none" stroke="black" cx="657" cy="-46" rx="27" ry="18"/>
<text text-anchor="middle" x="657" y="-42.3" font-family="Times,serif" font-size="14.00">7</text>
</g>
<!-- 6&#45;&gt;8 -->
<g id="edge8" class="edge">
<title>6&#45;&gt;8</title>
<path fill="none" stroke="black" d="M594.4,-46C602.39,-46 611.31,-46 619.82,-46"/>
<polygon fill="black" stroke="black" points="619.92,-49.5 629.92,-46 619.92,-42.5 619.92,-49.5"/>
</g>
<!-- 8&#45;&gt;7 -->
<g id="edge9" class="edge">
<title>8&#45;&gt;7</title>
<path fill="none" stroke="black" d="M684.04,-44.87C733.18,-42.74 839.81,-38.12 896.88,-35.64"/>
<polygon fill="black" stroke="black" points="897.1,-39.14 906.94,-35.21 896.8,-32.14 897.1,-39.14"/>
</g>
<!-- 9 -->
<g id="node10" class="node">
<title>9</title>
<ellipse fill="none" stroke="black" cx="747" cy="-84" rx="27" ry="18"/>
<text text-anchor="middle" x="747" y="-80.3" font-family="Times,serif" font-size="14.00">8</text>
</g>
<!-- 8&#45;&gt;9 -->
<g id="edge10" class="edge">
<title>8&#45;&gt;9</title>
<path fill="none" stroke="black" d="M680.21,-55.59C690.63,-60.09 703.23,-65.53 714.61,-70.44"/>
<polygon fill="black" stroke="black" points="713.23,-73.66 723.8,-74.41 716.01,-67.24 713.23,-73.66"/>
</g>
<!-- 10 -->
<g id="node11" class="node">
<title>10</title>
<ellipse fill="none" stroke="black" cx="837" cy="-84" rx="27" ry="18"/>
<text text-anchor="middle" x="837" y="-80.3" font-family="Times,serif" font-size="14.00">9</text>
</g>
<!-- 9&#45;&gt;10 -->
<g id="edge11" class="edge">
<title>9&#45;&gt;10</title>
<path fill="none" stroke="black" d="M774.4,-84C782.39,-84 791.31,-84 799.82,-84"/>
<polygon fill="black" stroke="black" points="799.92,-87.5 809.92,-84 799.92,-80.5 799.92,-87.5"/>
</g>
<!-- 10&#45;&gt;7 -->
<g id="edge12" class="edge">
<title>10&#45;&gt;7</title>
<path fill="none" stroke="black" d="M858.99,-73.15C872.12,-66.37 889.26,-57.51 903.92,-49.93"/>
<polygon fill="black" stroke="black" points="905.85,-52.87 913.13,-45.17 902.63,-46.66 905.85,-52.87"/>
</g>
<!-- 11 -->
<g id="node12" class="node">
<title>11</title>
<ellipse fill="none" stroke="black" cx="935.75" cy="-88" rx="36" ry="18"/>
<text text-anchor="middle" x="935.75" y="-84.3" font-family="Times,serif" font-size="14.00">Draw</text>
</g>
<!-- 10&#45;&gt;11 -->
<g id="edge13" class="edge">
<title>10&#45;&gt;11</title>
<path fill="none" stroke="black" d="M864.18,-85.08C872.06,-85.41 880.95,-85.78 889.69,-86.14"/>
<polygon fill="black" stroke="black" points="889.69,-89.64 899.82,-86.56 889.97,-82.65 889.69,-89.64"/>
</g>
</g>
</svg>
