<?xml version="1.0" encoding="UTF-8" standalone="no"?>
<!DOCTYPE svg PUBLIC "-//W3C//DTD SVG 1.1//EN"
 "http://www.w3.org/Graphics/SVG/1.1/DTD/svg11.dtd">
<!-- Generated by graphviz version 2.43.0 (0)
 -->
<!-- Title: %3 Pages: 1 -->
<svg width="195pt" height="131pt"
 viewBox="0.00 0.00 194.60 131.00" xmlns="http://www.w3.org/2000/svg" xmlns:xlink="http://www.w3.org/1999/xlink">
<g id="graph0" class="graph" transform="scale(1 1) rotate(0) translate(4 127)">
<title>%3</title>
<polygon fill="white" stroke="transparent" points="-4,4 -4,-127 190.6,-127 190.6,4 -4,4"/>
<!-- 0 -->
<g id="node1" class="node">
<title>0</title>
<ellipse fill="none" stroke="black" cx="74.6" cy="-105" rx="27" ry="18"/>
<text text-anchor="middle" x="74.6" y="-101.3" font-family="Times,serif" font-size="14.00">?</text>
</g>
<!-- 1 -->
<g id="node2" class="node">
<title>1</title>
<ellipse fill="none" stroke="black" cx="28.6" cy="-18" rx="28.7" ry="18"/>
<text text-anchor="middle" x="28.6" y="-14.3" font-family="Times,serif" font-size="14.00">Win</text>
</g>
<!-- 0&#45;&gt;1 -->
<g id="edge1" class="edge">
<title>0&#45;&gt;1</title>
<path fill="none" stroke="black" d="M53.56,-93.25C44.47,-87.41 34.74,-79.26 29.6,-69 26.12,-62.06 24.95,-53.88 24.9,-46.16"/>
<polygon fill="black" stroke="black" points="28.4,-46.25 25.41,-36.08 21.4,-45.89 28.4,-46.25"/>
<text text-anchor="middle" x="64.6" y="-57.8" font-family="Times,serif" font-size="14.00">WinGame</text>
</g>
<!-- 2 -->
<g id="node3" class="node">
<title>2</title>
<ellipse fill="none" stroke="black" cx="121.6" cy="-18" rx="36" ry="18"/>
<text text-anchor="middle" x="121.6" y="-14.3" font-family="Times,serif" font-size="14.00">Draw</text>
</g>
<!-- 0&#45;&gt;2 -->
<g id="edge2" class="edge">
<title>0&#45;&gt;2</title>
<path fill="none" stroke="black" d="M86.51,-88.77C90.91,-82.79 95.76,-75.75 99.6,-69 103.82,-61.58 107.79,-53.2 111.17,-45.45"/>
<polygon fill="black" stroke="black" points="114.45,-46.66 115.1,-36.09 108,-43.95 114.45,-46.66"/>
<text text-anchor="middle" x="146.6" y="-57.8" font-family="Times,serif" font-size="14.00">DrawGame</text>
</g>
</g>
</svg>
