<?xml version="1.0" encoding="UTF-8" standalone="no"?>
<!DOCTYPE svg PUBLIC "-//W3C//DTD SVG 1.1//EN"
 "http://www.w3.org/Graphics/SVG/1.1/DTD/svg11.dtd">
<!-- Generated by graphviz version 2.43.0 (0)
 -->
<!-- Title: %3 Pages: 1 -->
<svg width="169pt" height="98pt"
 viewBox="0.00 0.00 169.49 98.00" xmlns="http://www.w3.org/2000/svg" xmlns:xlink="http://www.w3.org/1999/xlink">
<g id="graph0" class="graph" transform="scale(1 1) rotate(0) translate(4 94)">
<title>%3</title>
<polygon fill="white" stroke="transparent" points="-4,4 -4,-94 165.49,-94 165.49,4 -4,4"/>
<!-- ? -->
<g id="node1" class="node">
<title>?</title>
<ellipse fill="lightgrey" stroke="black" cx="27" cy="-45" rx="27" ry="18"/>
<text text-anchor="middle" x="27" y="-41.3" font-family="Times,serif" font-size="14.00">?</text>
</g>
<!-- Win -->
<g id="node2" class="node">
<title>Win</title>
<ellipse fill="none" stroke="black" cx="125.75" cy="-72" rx="28.7" ry="18"/>
<text text-anchor="middle" x="125.75" y="-68.3" font-family="Times,serif" font-size="14.00">Win</text>
</g>
<!-- ?&#45;&gt;Win -->
<g id="edge1" class="edge">
<title>?&#45;&gt;Win</title>
<path fill="none" stroke="black" stroke-dasharray="5,2" d="M52.41,-51.81C63.61,-54.94 77.1,-58.7 89.37,-62.13"/>
<polygon fill="black" stroke="black" points="88.75,-65.59 99.33,-64.91 90.64,-58.85 88.75,-65.59"/>
</g>
<!-- Draw -->
<g id="node3" class="node">
<title>Draw</title>
<ellipse fill="none" stroke="black" cx="125.75" cy="-18" rx="36" ry="18"/>
<text text-anchor="middle" x="125.75" y="-14.3" font-family="Times,serif" font-size="14.00">Draw</text>
</g>
<!-- ?&#45;&gt;Draw -->
<g id="edge2" class="edge">
<title>?&#45;&gt;Draw</title>
<path fill="none" stroke="black" stroke-dasharray="5,2" d="M52.41,-38.19C62.1,-35.48 73.5,-32.3 84.35,-29.27"/>
<polygon fill="black" stroke="black" points="85.4,-32.61 94.09,-26.55 83.52,-25.87 85.4,-32.61"/>
</g>
</g>
</svg>
