<?xml version="1.0" encoding="UTF-8" standalone="no"?>
<!DOCTYPE svg PUBLIC "-//W3C//DTD SVG 1.1//EN"
 "http://www.w3.org/Graphics/SVG/1.1/DTD/svg11.dtd">
<!-- Generated by graphviz version 2.43.0 (0)
 -->
<!-- Title: %3 Pages: 1 -->
<svg width="152pt" height="44pt"
 viewBox="0.00 0.00 152.00 44.00" xmlns="http://www.w3.org/2000/svg" xmlns:xlink="http://www.w3.org/1999/xlink">
<g id="graph0" class="graph" transform="scale(1 1) rotate(0) translate(4 40)">
<title>%3</title>
<polygon fill="white" stroke="transparent" points="-4,4 -4,-40 148,-40 148,4 -4,4"/>
<!-- X -->
<g id="node1" class="node">
<title>X</title>
<ellipse fill="lightgrey" stroke="black" cx="27" cy="-18" rx="27" ry="18"/>
<text text-anchor="middle" x="27" y="-14.3" font-family="Times,serif" font-size="14.00">X</text>
</g>
<!-- O -->
<g id="node2" class="node">
<title>O</title>
<ellipse fill="none" stroke="black" cx="117" cy="-18" rx="27" ry="18"/>
<text text-anchor="middle" x="117" y="-14.3" font-family="Times,serif" font-size="14.00">O</text>
</g>
<!-- X&#45;&gt;O -->
<g id="edge1" class="edge">
<title>X&#45;&gt;O</title>
<path fill="none" stroke="black" d="M52.51,-11.88C61.4,-11.27 71.62,-11.1 81.22,-11.38"/>
<polygon fill="black" stroke="black" points="81.16,-14.88 91.31,-11.86 81.49,-7.89 81.16,-14.88"/>
</g>
<!-- O&#45;&gt;X -->
<g id="edge2" class="edge">
<title>O&#45;&gt;X</title>
<path fill="none" stroke="black" stroke-dasharray="5,2" d="M91.31,-24.14C82.41,-24.74 72.18,-24.9 62.59,-24.61"/>
<polygon fill="black" stroke="black" points="62.67,-21.11 52.51,-24.12 62.33,-28.1 62.67,-21.11"/>
</g>
</g>
</svg>
